# xmcd
#
# Track frame offsets: 
#        183
#        13040
#        30235
#        44320
#        62313
#        76140
#        93660
#        112910
#        137700
#        151878
#        162868
#        178215
#        193280
#        220580
#        237458
#        265143
#        283820
#
# Disc length: 4031 seconds
#
# Revision: 3
# Processed by: cddbd v1.5.2PL0 Copyright (c) Steve Scherf et al.
# Submitted via: ExactAudioCopyFreeDBPlugin 1.0
#
DISCID=e10fbd11
DTITLE=Natalie Cole - The Soul Of Natalie Cole 1975-1980
DYEAR=1991
DGENRE=R&B
TTITLE0=This will be (Original ver)
TTITLE1=Lovers
TTITLE2=Mr Melody
TTITLE3=Annie Mae
TTITLE4=I can't break away
TTITLE5=La Costa
TTITLE6=Peaceful living
TTITLE7=(I've seen) Paradise
TTITLE8=Stairways to the stars
TTITLE9=Inseparable
TTITLE10=I love him so much
TTITLE11=Be mine tonight
TTITLE12=What you won't do for love
TTITLE13=Still in love
TTITLE14=Love will find a way
TTITLE15=Party lights
TTITLE16=This will be (Remix)
EXTD=
EXTT0=
EXTT1=
EXTT2=
EXTT3=
EXTT4=
EXTT5=
EXTT6=
EXTT7=
EXTT8=
EXTT9=
EXTT10=
EXTT11=
EXTT12=
EXTT13=
EXTT14=
EXTT15=
EXTT16=
PLAYORDER=
